<svg xmlns="http://www.w3.org/2000/svg" viewBox="0 0 771.54 157.41"><defs><style>.cls-1,.cls-4{fill:#ed262d;}.cls-2{fill:#727375;}.cls-3{font-size:140px;fill:#606060;font-family:Dragon-Serial-Regular, Dragon-Serial;letter-spacing:-0.03em;}.cls-4{letter-spacing:-0.03em;}</style></defs><title>Asset 4</title><g id="Layer_2" data-name="Layer 2"><g id="Layer_1-2" data-name="Layer 1"><path class="cls-1" d="M48.27,84.07C55.8,70,65.86,57.92,77.15,46.78A129.08,129.08,0,0,1,93.06,33.16c17-12,35.09-11.69,53.49-4.27,9.06,3.66,12.75,11.64,13.8,21,1.28,11.42-2,21.65-8.18,31.11-9.2,14-20.66,26-32.95,37.33C111,125.82,102.79,133.37,94.67,141c-4.72,4.44-9.18,9.14-12.45,14.86-1.45-1.25-.51-2.32-.12-3.41,3.48-9.93,10.09-17.89,16.53-25.92,13.13-16.33,27.18-31.93,39.13-49.2,4.83-7,9.44-14.11,10-23a28.67,28.67,0,0,0-1.59-12.76c-2.86-7.08-9.49-8.56-15.18-3.5A29,29,0,0,0,125,46a161.57,161.57,0,0,0-16.65,46.05c-.92,4.54-1.61,9.12-2.48,14.08-1.84-2.22-1.24-4.62-1.34-6.8a225.12,225.12,0,0,0-4.13-35.58,41.84,41.84,0,0,0-3-9.44c-2.59-5.49-5.85-6.74-11.23-4.14a50.51,50.51,0,0,0-12.74,8.87c-.67,16.66.15,33.37-1.21,50C69,97,67.22,84.52,60.63,72.92L49,84.85l-.76,0Z"/><path class="cls-2" d="M73.31,32.85c-2.58-2.09-5-4.48-7.77-6.22-8.05-5-16.85-5.83-25.92-3.56a17,17,0,0,0-10.11,7.67C22,42.32,21.38,54.37,27.08,66.81c4.48,9.77,11.29,18,17.71,26.5,6.82,9,13.9,17.87,19.62,27.68a64.88,64.88,0,0,1,5.45,12.29,7.66,7.66,0,0,1,.31,5.3c-5.87-15-17.88-24.55-28.71-35.05C28.9,91.35,16.68,78.86,7.24,64A52.08,52.08,0,0,1,1.19,50.89C-1.93,40.31,1.22,31.53,9,24.22c6.69-6.32,14.9-9.1,24-9.66,10.76-.66,20.88,1.33,30.17,6.9,4.46,2.68,8.51,5.85,11,10.6v.85Z"/><path class="cls-1" d="M94.07,12.2c.43-4.59,1.34-9,5.91-11.36a6.62,6.62,0,0,1,7.86,1.06A12.78,12.78,0,0,1,112,14.07c-1.09,6.57-4.55,10.1-9.28,9.83-4.54-.26-8-4.55-8.52-10.7Z"/><path class="cls-1" d="M59.59,54.49c-6.77-2.38-9.58-6.92-8.11-12.81,1.27-5,5.94-7,10.35-4.35,3.79,2.32,5.06,6,4.66,10.21C66.11,51.54,63.71,53.7,59.59,54.49Z"/><text class="cls-3" transform="translate(188.59 119.47) scale(1.17 1)">Medic<tspan class="cls-4" x="291.19" y="0">Mais</tspan></text></g></g></svg>