<svg xmlns="http://www.w3.org/2000/svg" viewBox="0 0 671.1 155.87"><path d="M48.27 84.07C55.8 70 65.86 57.92 77.15 46.78a129.08 129.08 0 0 1 15.91-13.62c17-12 35.1-11.7 53.5-4.27 9.06 3.66 12.75 11.64 13.8 21 1.28 11.42-2 21.65-8.18 31.1-9.2 14-20.66 26-32.95 37.33L94.67 141c-4.72 4.44-9.18 9.14-12.45 14.86-1.45-1.25-.5-2.32-.12-3.4 3.48-9.93 10.1-17.9 16.53-25.92 13.13-16.33 27.18-31.93 39.13-49.2 4.83-7 9.44-14.1 10-23a28.67 28.67 0 0 0-1.59-12.76c-2.86-7.08-9.5-8.56-15.18-3.5A29 29 0 0 0 125 46a161.57 161.57 0 0 0-16.65 46.05c-.92 4.54-1.6 9.12-2.48 14.08-1.84-2.22-1.24-4.62-1.34-6.8a225.12 225.12 0 0 0-4.13-35.58 41.84 41.84 0 0 0-3-9.44c-2.6-5.5-5.85-6.74-11.23-4.14a50.51 50.51 0 0 0-12.74 8.87c-.67 16.66.15 33.37-1.2 50-3.22-12.04-5-24.52-11.6-36.12L49 84.85h-.76z" fill="#ed262d"/><path d="M73.3 32.85c-2.58-2.1-5-4.48-7.77-6.22-8.05-5-16.85-5.83-25.92-3.56a17 17 0 0 0-10.11 7.67C22 42.32 21.38 54.37 27.08 66.8c4.48 9.77 11.3 18 17.7 26.5 6.82 9 13.9 17.87 19.62 27.68a64.88 64.88 0 0 1 5.45 12.29 7.66 7.66 0 0 1 .31 5.3c-5.87-15-17.88-24.55-28.7-35.05C28.9 91.35 16.68 78.86 7.24 64a52.08 52.08 0 0 1-6.05-13.11C-1.93 40.3 1.22 31.53 9 24.22c6.7-6.32 14.9-9.1 24-9.66 10.76-.66 20.88 1.33 30.17 6.9 4.46 2.68 8.5 5.85 11 10.6v.85z" fill="#727375"/><path d="M94.07 12.2c.43-4.6 1.34-9 5.9-11.36a6.62 6.62 0 0 1 7.86 1.06A12.78 12.78 0 0 1 112 14.07c-1.1 6.57-4.55 10.1-9.28 9.83-4.54-.26-8-4.55-8.52-10.7zM59.6 54.5c-6.77-2.38-9.58-6.92-8.1-12.8 1.27-5 5.94-7 10.35-4.35 3.8 2.32 5.06 6 4.66 10.2-.38 4-2.78 6.16-6.9 6.95z" fill="#ed262d"/><text transform="matrix(1.17 0 0 1 164.86 116.32)" font-size="121.58" fill="#606060" font-family="Dragon-Serial-Regular,Dragon-Serial" letter-spacing="-0.03em">Medic<tspan x="252.87" fill="#ed262d" y="0">Mais</tspan></text></svg>