<svg xmlns="http://www.w3.org/2000/svg" viewBox="0 0 652.15 155.87"><defs><style>.cls-1{fill:#ed262d;}.cls-2{fill:#727375;}.cls-3{fill:#606060;}</style></defs><title>Asset 4</title><g id="Layer_2" data-name="Layer 2"><g id="Layer_1-2" data-name="Layer 1"><path class="cls-1" d="M48.27,84.07C55.8,70,65.86,57.92,77.15,46.78A129.08,129.08,0,0,1,93.06,33.16c17-12,35.09-11.69,53.49-4.27,9.06,3.66,12.75,11.64,13.8,21,1.28,11.42-2,21.65-8.18,31.11-9.2,14-20.66,26-32.95,37.33C111,125.82,102.79,133.37,94.67,141c-4.72,4.44-9.18,9.14-12.45,14.86-1.45-1.25-.51-2.32-.12-3.41,3.48-9.93,10.09-17.89,16.53-25.92,13.13-16.33,27.18-31.93,39.13-49.2,4.83-7,9.44-14.11,10-23a28.67,28.67,0,0,0-1.59-12.76c-2.86-7.08-9.49-8.56-15.18-3.5A29,29,0,0,0,125,46a161.57,161.57,0,0,0-16.65,46.05c-.92,4.54-1.61,9.12-2.48,14.08-1.84-2.22-1.24-4.62-1.34-6.8a225.12,225.12,0,0,0-4.13-35.58,41.84,41.84,0,0,0-3-9.44c-2.59-5.49-5.85-6.74-11.23-4.14a50.51,50.51,0,0,0-12.74,8.87c-.67,16.66.15,33.37-1.21,50C69,97,67.22,84.52,60.63,72.92L49,84.85l-.76,0Z"/><path class="cls-2" d="M73.31,32.85c-2.58-2.09-5-4.48-7.77-6.22-8.05-5-16.85-5.83-25.92-3.56a17,17,0,0,0-10.11,7.67C22,42.32,21.38,54.37,27.08,66.81c4.48,9.77,11.29,18,17.71,26.5,6.82,9,13.9,17.87,19.62,27.68a64.88,64.88,0,0,1,5.45,12.29,7.66,7.66,0,0,1,.31,5.3c-5.87-15-17.88-24.55-28.71-35.05C28.9,91.35,16.68,78.86,7.24,64A52.08,52.08,0,0,1,1.19,50.89C-1.93,40.31,1.22,31.53,9,24.22c6.69-6.32,14.9-9.1,24-9.66,10.76-.66,20.88,1.33,30.17,6.9,4.46,2.68,8.51,5.85,11,10.6v.85Z"/><path class="cls-1" d="M94.07,12.2c.43-4.59,1.34-9,5.91-11.36a6.62,6.62,0,0,1,7.86,1.06A12.78,12.78,0,0,1,112,14.07c-1.09,6.57-4.55,10.1-9.28,9.83-4.54-.26-8-4.55-8.52-10.7Z"/><path class="cls-1" d="M59.59,54.49c-6.77-2.38-9.58-6.92-8.11-12.81,1.27-5,5.94-7,10.35-4.35,3.79,2.32,5.06,6,4.66,10.21C66.11,51.54,63.71,53.7,59.59,54.49Z"/><path class="cls-3" d="M165,112.53a22.5,22.5,0,0,0,3.18-4.31,9.4,9.4,0,0,0,1-4.42l1.66-47.22V56a10.92,10.92,0,0,0-.53-4,32.48,32.48,0,0,0-2.51-4.19h17.44L204.4,94.9,223,47.84H241.7a17.64,17.64,0,0,0-3,4.08,9.57,9.57,0,0,0-.83,4.19v.47l1.93,47.22a11.64,11.64,0,0,0,.62,4.3,20.51,20.51,0,0,0,3.11,4.43H222.78a15.87,15.87,0,0,0,3.1-4.07,12.73,12.73,0,0,0,.62-4.66l-1.38-43.92-20.85,52.65h-6.36l-21.4-51.82-1,43.09a13.45,13.45,0,0,0,.62,4.78,14.6,14.6,0,0,0,3.11,4Z"/><path class="cls-3" d="M305.64,78.53H260.2l-.41,6.12q0,10.93,5.59,17.22t15.4,6.29A33.55,33.55,0,0,0,296,104.08a39,39,0,0,0,7.6-5.6L301.08,107l-3.31,2a38.88,38.88,0,0,1-19.34,5q-13.95,0-22.65-8t-8.7-20.86a26,26,0,0,1,8.84-20.26q8.84-7.89,22.79-7.89,11.46,0,18.64,5.67T305.64,78.53ZM278.57,61.06Q265,61.06,261,74.64h23.2c1.39,0,2.77,0,4.15-.06a3.86,3.86,0,0,0,3-1.24,3.25,3.25,0,0,0,1-2.6q0-4-4-6.84A16.57,16.57,0,0,0,278.57,61.06Z"/><path class="cls-3" d="M353.7,58.59V36.75a15,15,0,0,0-.58-4.67,21.21,21.21,0,0,0-2.59-4.66h14.91V103.8a14.22,14.22,0,0,0,.69,5.43,16.14,16.14,0,0,0,2.35,3.3H353.7v-7c-.92,1.11-1.43,1.71-1.52,1.79a7.36,7.36,0,0,1-1.25,1.08q-5.82,5.63-17,5.63-11.49,0-18.7-7T308,88.92q0-14,9.83-22.19t26.88-8.14h9Zm-14.91,50.05c4.78,0,8.47-1.38,11-4.15s3.87-6.82,3.87-12.19V75.73q0-7-2.48-10t-8.29-3.08a20.81,20.81,0,0,0-16,6.74q-6.21,6.75-6.22,17.52,0,9.94,5,15.86A16.29,16.29,0,0,0,338.79,108.64Z"/><path class="cls-3" d="M372.21,112.53a13.94,13.94,0,0,0,3.29-4,11.63,11.63,0,0,0,.71-4.55V67a22.71,22.71,0,0,0-.36-5.26,15.47,15.47,0,0,0-2.4-3.72H388v46a24.55,24.55,0,0,0,.28,4.9,12.87,12.87,0,0,0,2.48,3.6Zm2.35-72.12a5.84,5.84,0,0,1,2.19-4.61,7.68,7.68,0,0,1,5.2-1.89,8.63,8.63,0,0,1,5.61,1.89,5.75,5.75,0,0,1,2.33,4.61A5.64,5.64,0,0,1,387.63,45a8.55,8.55,0,0,1-5.55,1.83A8.2,8.2,0,0,1,376.75,45,5.61,5.61,0,0,1,374.56,40.41Z"/><path class="cls-3" d="M446.79,60.71v13q-5.25-7-10-9.85a20.69,20.69,0,0,0-11-2.89q-9,0-14.22,6.07t-5.25,16.59q0,11.56,5.52,18.18t15.33,6.61a29.47,29.47,0,0,0,8.5-1.3,25.52,25.52,0,0,0,7.66-3.66c1.29-.86,2.33-1.59,3.11-2.18s2.05-1.63,3.8-3.13l-2.35,9a41.88,41.88,0,0,1-22.93,7q-13.8,0-22.65-8T393.48,85.5q0-12.75,9.11-20.66t23.76-7.91a60.21,60.21,0,0,1,10.28.83A51.76,51.76,0,0,1,446.79,60.71Z"/><path class="cls-1" d="M452.31,112.53a23.4,23.4,0,0,0,3.18-4.31,9.4,9.4,0,0,0,1-4.42l1.66-47.22V56a10.92,10.92,0,0,0-.53-4,31.31,31.31,0,0,0-2.51-4.19h17.44L491.67,94.9,510.3,47.84H529a18.25,18.25,0,0,0-3,4.08,9.57,9.57,0,0,0-.82,4.19v.47L527,103.8a11.64,11.64,0,0,0,.62,4.3,20.14,20.14,0,0,0,3.11,4.43H510a16,16,0,0,0,3.11-4.07,13,13,0,0,0,.62-4.66l-1.38-43.92-20.85,52.65h-6.36L463.77,60.71l-1,43.09a13.22,13.22,0,0,0,.62,4.78,14.4,14.4,0,0,0,3.11,4Z"/><path class="cls-1" d="M570.26,77.86v-7.1c0-3.31-.66-5.67-2-7.09s-3.53-2.13-6.69-2.13A21.15,21.15,0,0,0,548,66.38a29.42,29.42,0,0,0-3.48,3.18q-1.82,2-4.6,5.43l-.14-12.75,4-1.65a53.07,53.07,0,0,1,18.78-3.42q9.39,0,14.43,2.83t5,11.33V103.8a14.79,14.79,0,0,0,.55,4.84,14.87,14.87,0,0,0,2.76,3.89h-14.1l-.41-6.26-3,2.52a27.8,27.8,0,0,1-16.63,5.28q-7.49,0-12.41-3.61t-4.92-9a10.17,10.17,0,0,1,3.34-7.81q3.35-3.07,12.39-6.75L557,83.78q4.86-2,7-3Q567.34,79.29,570.26,77.86Zm0,17.08V83l-3.06,1.42L560.81,87a70.31,70.31,0,0,0-6.67,3.25,26,26,0,0,0-4.86,3.36,7.39,7.39,0,0,0-2.64,5.91,7.07,7.07,0,0,0,3.06,5.78,11.83,11.83,0,0,0,7.5,2.36q6.25,0,9.65-3.36C569.12,102.08,570.26,99,570.26,94.94Z"/><path class="cls-1" d="M589.18,112.53a13.94,13.94,0,0,0,3.29-4,11.63,11.63,0,0,0,.71-4.55V67a22.71,22.71,0,0,0-.36-5.26,15.47,15.47,0,0,0-2.4-3.72h14.5v46a24.55,24.55,0,0,0,.28,4.9,12.87,12.87,0,0,0,2.48,3.6Zm2.35-72.12a5.84,5.84,0,0,1,2.19-4.61,7.68,7.68,0,0,1,5.2-1.89,8.63,8.63,0,0,1,5.61,1.89,5.75,5.75,0,0,1,2.33,4.61A5.64,5.64,0,0,1,604.6,45a8.55,8.55,0,0,1-5.55,1.83A8.18,8.18,0,0,1,593.72,45,5.61,5.61,0,0,1,591.53,40.41Z"/><path class="cls-1" d="M610.58,110.05V97q4.7,7,8.91,9.86A16.31,16.31,0,0,0,629,109.7a12.06,12.06,0,0,0,7.87-2.48,8.09,8.09,0,0,0,3-6.61,8.88,8.88,0,0,0-3-6.73,20.8,20.8,0,0,0-4.07-2.54c-1.8-.9-3.52-1.75-5.18-2.54q-9-3.89-12.78-7.79A12.59,12.59,0,0,1,611,71.92q0-6.72,6.07-10.86t16.16-4.13a50.44,50.44,0,0,1,7.12.47,67.12,67.12,0,0,1,8.49,2V70.63a32.75,32.75,0,0,0-2.69-3.72,18.74,18.74,0,0,0-2.7-2.54,16.13,16.13,0,0,0-9.66-3.19,12.26,12.26,0,0,0-7.74,2.36,7.44,7.44,0,0,0-3,6.14,6.69,6.69,0,0,0,2.07,4.9c1.39,1.38,4,2.93,7.74,4.66L637,81.13a69,69,0,0,1,7.81,3.9,19,19,0,0,1,4.35,3.54,12.09,12.09,0,0,1,3,8.5,14.85,14.85,0,0,1-6.35,12.51q-6.34,4.73-17,4.72a49.29,49.29,0,0,1-7.66-.71A40.81,40.81,0,0,1,610.58,110.05Z"/></g></g></svg>